# xmcd CD database file
#
# Track frame offsets:
#	150
#	18030
#	36090
#	55097
#	70635
#	83945
#	99215
#	114877
#	128227
#	144907
#	161327
#	174255
#
# Disc length: 2592 seconds
#
# Revision: 0
# Processed by: cddbd v1.5PL3 Copyright (c) Steve Scherf et al.
# Submitted via: CDex 1.51
#
DISCID=820a1e0c
DTITLE=伊藤咲子 - ベスト／ひまわり娘
DYEAR=1976
DGENRE=Japanese Pop
TTITLE0=想い出のセンチメンタル・シティイ
TTITLE1=いい娘に逢ったらドキッ
TTITLE2=冬の星
TTITLE3=木枯しの二人
TTITLE4=青い麦
TTITLE5=乙女のワルツ
TTITLE6=きみ可愛いね
TTITLE7=パーティの夜
TTITLE8=想い出まつり
TTITLE9=雨の中に消えて
TTITLE10=ひまわり娘
TTITLE11=たそがれに愛をこめて
EXTD=YEAR: 1976
EXTT0=
EXTT1=
EXTT2=
EXTT3=
EXTT4=
EXTT5=
EXTT6=
EXTT7=
EXTT8=
EXTT9=
EXTT10=
EXTT11=
PLAYORDER=
